<svg width="16" height="16" viewBox="0 0 16 16" fill="none" xmlns="http://www.w3.org/2000/svg">
<path opacity="0.987" fill-rule="evenodd" clip-rule="evenodd" d="M7.209 1.06124C7.934 0.980238 8.363 0.980238 9.142 1.06124C10.5209 1.26533 11.7992 1.90272 12.792 2.88124C12.1211 3.51537 11.4591 4.15877 10.806 4.81124C9.55533 3.75124 8.15933 3.50657 6.618 4.07724C5.48733 4.59724 4.7 5.43991 4.256 6.60524C3.53044 6.06507 2.81433 5.51232 2.108 4.94724C2.05891 4.9214 2.00285 4.91194 1.948 4.92024C3.07 2.7569 4.82333 1.47024 7.208 1.06024" fill="#F44336"/>
<path opacity="0.997" fill-rule="evenodd" clip-rule="evenodd" d="M1.94601 4.92018C2.00267 4.91151 2.05634 4.92051 2.10701 4.94718C2.81334 5.51226 3.52945 6.06501 4.25501 6.60518C4.14083 7.05924 4.06886 7.52288 4.04001 7.99018C4.06467 8.44218 4.13634 8.88585 4.25501 9.32118L2.00001 11.1162C1.01801 9.06418 1.00001 6.99885 1.94601 4.92018Z" fill="#FFC107"/>
<path opacity="0.999" fill-rule="evenodd" clip-rule="evenodd" d="M12.685 13.2902C11.9829 12.671 11.2478 12.0902 10.483 11.5502C11.2497 11.0089 11.715 10.2662 11.879 9.32223H8.12201V6.71323C10.2887 6.69523 12.4543 6.71356 14.619 6.76823C15.0297 8.99823 14.5553 11.0089 13.196 12.8002C13.0344 12.9721 12.8632 13.1356 12.685 13.2902Z" fill="#448AFF"/>
<path opacity="0.993" fill-rule="evenodd" clip-rule="evenodd" d="M4.255 9.32227C5.075 11.3603 6.57833 12.3116 8.765 12.1763C9.37883 12.1052 9.96735 11.8908 10.483 11.5503C11.2483 12.0916 11.9823 12.6716 12.685 13.2903C11.5716 14.2907 10.1521 14.8843 8.658 14.9743C8.31854 15.0014 7.97746 15.0014 7.638 14.9743C5.09267 14.6743 3.21333 13.3883 2 11.1163L4.255 9.32227Z" fill="#43A047"/>
</svg>
